<?xml version="1.0" standalone="no"?>
<!DOCTYPE svg PUBLIC "-//W3C//DTD SVG 20010904//EN"
 "http://www.w3.org/TR/2001/REC-SVG-20010904/DTD/svg10.dtd">
<svg version="1.0" xmlns="http://www.w3.org/2000/svg"
 width="512.000000pt" height="512.000000pt" viewBox="0 0 512.000000 512.000000"
 preserveAspectRatio="xMidYMid meet">

<g transform="translate(0.000000,512.000000) scale(0.100000,-0.100000)"
fill="#000000" stroke="none">
<path d="M2765 4955 c-103 -17 -254 -62 -351 -106 -157 -70 -345 -206 -452
-325 -57 -64 -58 -65 -177 -103 -66 -21 -161 -49 -212 -61 l-92 -22 -60 21
c-94 33 -193 44 -336 38 -263 -10 -473 -109 -659 -309 -84 -90 -79 -89 -165
-19 -87 71 -151 180 -172 294 -16 85 -16 87 -35 94 -22 8 -31 -10 -45 -92 -13
-77 -2 -196 27 -277 8 -24 19 -77 25 -118 15 -109 46 -232 86 -337 l35 -92
-25 -53 c-111 -235 10 -518 253 -593 104 -32 210 -101 399 -258 122 -102 179
-128 289 -136 l84 -6 34 -95 c48 -134 101 -239 179 -355 l67 -100 -11 -145
c-23 -277 -76 -602 -145 -890 -31 -128 -46 -145 -138 -155 -131 -15 -201 -82
-201 -192 0 -60 25 -105 79 -142 38 -26 157 -45 247 -39 57 4 57 4 57 -24 0
-37 25 -96 53 -126 55 -60 173 -87 344 -80 189 8 228 40 321 262 157 372 262
705 356 1122 24 106 77 419 92 533 5 46 10 55 36 70 208 113 393 262 523 421
31 38 61 67 66 64 17 -10 83 -138 115 -224 66 -175 72 -232 108 -975 19 -374
30 -689 26 -700 -12 -31 -27 -40 -135 -84 -112 -46 -160 -86 -176 -145 -15
-54 -6 -100 27 -143 36 -47 72 -60 186 -69 l96 -7 15 -33 c9 -18 35 -46 58
-61 42 -28 45 -28 216 -31 218 -4 266 7 334 77 30 31 49 62 57 92 38 143 111
939 127 1384 11 316 22 426 99 950 30 204 53 424 62 600 6 105 12 143 35 205
45 124 97 241 126 284 l27 41 13 -33 c40 -99 42 -477 4 -822 -24 -211 -25
-267 -10 -342 39 -190 225 -388 364 -388 110 1 205 101 205 215 -1 48 -33 106
-90 160 -86 82 -85 65 -45 441 58 539 62 734 20 859 -67 198 -226 345 -422
391 -85 20 -222 13 -308 -15 -54 -18 -61 -18 -70 -4 -103 159 -141 208 -218
289 -198 207 -432 340 -716 405 -116 27 -380 34 -506 14z m-1497 -1111 c23 -9
42 -18 42 -21 0 -35 -138 -146 -231 -187 -64 -28 -156 -52 -165 -44 -12 13 39
157 68 192 65 79 170 101 286 60z m-733 -216 c15 -7 45 -37 67 -68 l39 -55
-83 -7 c-45 -4 -116 -14 -156 -23 -98 -22 -106 -18 -99 47 7 56 42 103 81 111
46 9 126 6 151 -5z m509 -439 c8 -40 8 -137 0 -166 -8 -28 -24 -20 -24 10 0
12 -16 56 -34 97 -33 74 -33 75 -12 82 48 14 63 9 70 -23z m-288 -127 c12 -59
20 -109 18 -111 -8 -9 -64 63 -88 112 l-27 52 33 27 c18 15 35 28 38 28 3 0
14 -48 26 -108z m1054 -2025 c-41 -325 -56 -400 -85 -424 -33 -29 -101 -33
-90 -5 23 53 127 368 156 471 18 66 35 118 36 117 2 -2 -6 -73 -17 -159z"/>
</g>
</svg>
