<?xml version="1.0" standalone="no"?>
<!DOCTYPE svg PUBLIC "-//W3C//DTD SVG 20010904//EN"
 "http://www.w3.org/TR/2001/REC-SVG-20010904/DTD/svg10.dtd">
<svg version="1.0" xmlns="http://www.w3.org/2000/svg"
 width="512.000000pt" height="512.000000pt" viewBox="0 0 512.000000 512.000000"
 preserveAspectRatio="xMidYMid meet">

<g transform="translate(0.000000,512.000000) scale(0.100000,-0.100000)"
fill="#000000" stroke="none">
<path d="M2424 4922 l-102 -187 -191 -105 c-105 -58 -191 -107 -190 -110 0 -3
83 -50 186 -105 211 -113 185 -87 314 -327 46 -87 86 -158 89 -158 3 0 52 85
109 190 l103 189 189 103 c104 57 189 105 189 108 0 3 -85 52 -189 109 l-189
103 -103 189 c-57 104 -106 189 -109 189 -3 0 -51 -85 -106 -188z m182 -254
c21 -41 34 -52 114 -94 49 -27 90 -51 90 -54 0 -3 -40 -26 -89 -52 l-89 -48
-50 -91 -50 -92 -26 47 c-14 25 -37 66 -51 91 -17 29 -41 53 -70 70 -25 14
-66 37 -91 51 l-46 26 90 49 c87 47 93 52 128 117 20 37 43 78 51 91 l15 23
25 -43 c14 -24 36 -65 49 -91z"/>
<path d="M166 4824 l-167 -268 326 -321 326 -320 110 -290 c60 -159 115 -295
122 -301 7 -7 254 -137 550 -290 l538 -279 376 -383 376 -383 -104 -105 c-63
-63 -100 -107 -94 -112 6 -5 105 -70 220 -145 189 -123 222 -148 326 -254 115
-118 115 -118 138 -198 55 -200 199 -422 407 -630 270 -270 739 -452 1392
-540 40 -5 42 -4 37 17 -2 13 -12 65 -20 116 -28 165 -142 579 -173 630 -7 9
-21 8 -67 -8 -33 -11 -63 -24 -68 -29 -4 -4 8 -55 28 -112 41 -116 109 -368
102 -375 -10 -10 -319 186 -510 323 -48 35 -91 63 -95 63 -8 -1 -70 -83 -78
-104 -6 -16 68 -74 256 -201 124 -83 122 -84 -55 -27 -217 69 -428 173 -555
273 -116 92 -268 269 -356 414 -54 92 -114 236 -114 279 0 27 47 76 58 60 4
-6 47 -72 95 -147 49 -76 93 -137 98 -137 10 0 119 68 119 75 0 2 -47 77 -105
166 l-106 163 53 53 c33 33 56 49 62 44 6 -5 123 -102 261 -215 l250 -207 28
33 c15 18 36 45 47 59 l19 25 -254 210 c-215 177 -252 211 -240 223 11 11 24
10 86 -9 301 -91 638 -393 795 -712 21 -43 42 -78 46 -78 17 0 128 56 128 64
0 18 -104 203 -163 290 -68 99 -206 241 -327 336 -44 35 -78 65 -76 67 6 7
180 -63 273 -110 107 -54 183 -101 285 -178 l76 -58 47 57 47 56 -34 29 c-18
15 -87 64 -153 108 -289 195 -629 309 -916 309 l-92 0 -109 107 c-96 95 -126
134 -255 331 l-146 223 -90 -88 -89 -88 -401 407 -402 408 -250 129 -250 130
-19 -34 -19 -34 -69 35 c-37 19 -68 40 -68 47 1 6 7 23 14 37 l14 25 -171 90
-170 90 -98 252 -98 252 -357 453 c-196 249 -362 459 -369 466 -9 11 -46 -41
-179 -254z m3124 -2676 l72 -111 -189 -189 c-103 -103 -191 -188 -196 -188 -4
0 -57 32 -118 72 l-111 71 229 229 c125 125 231 228 234 228 4 0 39 -50 79
-112z"/>
<path d="M3580 3555 l0 -75 70 0 70 0 0 75 0 75 -70 0 -70 0 0 -75z"/>
<path d="M4513 3168 c-6 -7 -49 -86 -98 -176 -48 -89 -95 -171 -104 -182 -9
-10 -99 -63 -199 -118 -178 -97 -183 -101 -160 -115 12 -8 84 -47 158 -87 215
-117 194 -96 297 -286 51 -93 98 -177 105 -187 12 -16 24 1 118 172 l104 190
188 103 c103 56 188 105 188 108 0 4 -85 53 -189 110 l-188 103 -103 188 c-56
104 -103 189 -105 189 -1 0 -7 -6 -12 -12z m73 -404 c37 -69 41 -74 126 -120
48 -26 88 -50 88 -53 0 -4 -40 -28 -88 -54 l-88 -48 -49 -90 c-27 -49 -52 -86
-56 -82 -4 5 -28 44 -52 88 -46 84 -45 83 -198 168 l-33 18 92 50 c87 47 93
52 128 117 65 118 64 117 78 95 7 -10 30 -50 52 -89z"/>
<path d="M390 2815 l0 -75 75 0 75 0 0 75 0 75 -75 0 -75 0 0 -75z"/>
<path d="M1438 1788 c-8 -13 -64 -114 -124 -225 l-109 -201 -218 -119 c-121
-66 -219 -124 -218 -129 0 -5 99 -63 219 -128 l218 -119 112 -207 c62 -113
118 -214 125 -224 11 -15 27 9 135 206 l122 224 225 123 c124 67 225 124 225
126 0 2 -101 58 -224 125 l-225 121 -107 197 c-59 108 -115 210 -125 225 l-16
28 -15 -23z m86 -415 l67 -122 97 -52 c53 -29 109 -60 125 -69 l27 -17 -125
-67 -124 -67 -67 -122 c-37 -67 -68 -123 -69 -125 -2 -2 -34 53 -71 121 l-68
125 -123 67 c-68 37 -123 68 -123 70 0 2 55 33 123 69 l122 66 68 126 c38 69
70 124 72 122 1 -2 32 -58 69 -125z"/>
<path d="M3962 761 c-23 -27 -42 -53 -41 -58 0 -8 103 -93 112 -93 3 0 24 25
48 56 l43 57 -49 43 c-28 24 -55 44 -61 44 -6 0 -30 -22 -52 -49z"/>
<path d="M2607 783 c-4 -3 -7 -37 -7 -75 l0 -68 75 0 75 0 0 75 0 75 -68 0
c-38 0 -72 -3 -75 -7z"/>
</g>
</svg>
