<?xml version="1.0" standalone="no"?>
<!DOCTYPE svg PUBLIC "-//W3C//DTD SVG 20010904//EN"
 "http://www.w3.org/TR/2001/REC-SVG-20010904/DTD/svg10.dtd">
<svg version="1.0" xmlns="http://www.w3.org/2000/svg"
 width="512.000000pt" height="512.000000pt" viewBox="0 0 512.000000 512.000000"
 preserveAspectRatio="xMidYMid meet">

<g transform="translate(0.000000,512.000000) scale(0.100000,-0.100000)"
fill="#000000" stroke="none">
<path d="M2413 4781 c-56 -35 -53 -115 7 -146 86 -44 170 58 108 129 -31 35
-75 42 -115 17z m72 -71 c0 -18 -6 -26 -23 -28 -24 -4 -38 18 -28 44 3 9 15
14 28 12 17 -2 23 -10 23 -28z"/>
<path d="M2854 4621 c-47 -29 -64 -59 -64 -114 0 -59 27 -103 76 -123 98 -41
197 20 197 121 0 24 -7 55 -17 70 -40 62 -131 83 -192 46z m110 -72 c14 -11
26 -29 26 -39 0 -30 -34 -62 -65 -62 -30 0 -65 32 -65 59 0 18 45 63 63 63 8
0 26 -9 41 -21z"/>
<path d="M2113 4525 c-45 -19 -73 -69 -73 -128 0 -40 5 -53 34 -84 30 -33 39
-37 93 -41 56 -4 62 -2 96 27 125 110 3 293 -150 226z m111 -87 c22 -31 20
-51 -9 -78 -21 -20 -30 -22 -52 -14 -15 5 -34 21 -42 35 -13 24 -13 29 2 53
23 34 78 37 101 4z"/>
<path d="M2479 4345 c-14 -8 -32 -28 -39 -45 -37 -89 90 -160 150 -83 57 73
-30 174 -111 128z m66 -75 c0 -33 -40 -41 -50 -11 -9 28 2 43 28 39 16 -2 22
-10 22 -28z"/>
<path d="M2323 4020 c-114 -69 -57 -250 79 -250 65 0 138 70 138 133 0 45 -26
95 -62 117 -43 26 -113 26 -155 0z m117 -70 c39 -39 14 -100 -41 -100 -56 0
-82 73 -37 104 30 21 54 20 78 -4z"/>
<path d="M2904 4011 c-36 -22 -58 -75 -49 -114 4 -14 20 -38 36 -53 43 -41
105 -41 148 0 38 36 46 74 27 119 -26 63 -102 85 -162 48z m99 -62 c18 -25 11
-56 -15 -70 -45 -24 -91 24 -63 67 19 30 59 32 78 3z"/>
<path d="M3744 3999 c-10 -11 -87 -132 -170 -267 -99 -161 -156 -246 -165
-243 -350 99 -470 116 -844 116 -313 0 -377 -5 -601 -50 -335 -67 -623 -211
-746 -372 -100 -132 -114 -259 -45 -395 l36 -70 -54 -106 c-263 -525 -305
-1093 -108 -1486 19 -39 56 -100 80 -136 l45 -64 -11 -51 -11 -50 -59 0 c-70
-1 -127 -33 -165 -94 -82 -129 -40 -252 117 -345 200 -118 415 -60 487 131 11
30 20 61 20 71 1 39 14 41 85 10 497 -212 1353 -212 1850 0 71 31 84 29 85
-10 0 -36 42 -126 76 -167 42 -48 92 -77 165 -92 152 -33 386 95 418 228 21
87 -20 187 -100 240 -33 22 -53 27 -100 28 l-59 0 -11 50 -11 51 45 64 c138
200 201 419 200 705 -1 314 -73 604 -224 907 l-58 116 35 69 c109 212 6 427
-281 588 -47 26 -85 51 -85 55 0 4 61 108 136 231 160 262 165 272 152 311
-18 51 -88 66 -124 27z m-958 -659 c71 -6 172 -17 224 -26 91 -15 246 -51 262
-60 4 -3 -17 -44 -46 -92 -89 -148 -91 -132 16 -132 l93 1 49 82 c27 45 51 84
52 85 1 2 42 -17 91 -42 161 -83 258 -181 270 -274 5 -37 2 -44 -43 -93 -245
-263 -930 -405 -1564 -323 -384 49 -717 184 -839 338 -36 45 -38 74 -12 132
123 271 787 456 1447 404z m-1364 -802 c8 -3 -5 -49 -35 -129 -100 -271 -137
-461 -137 -714 0 -374 105 -647 334 -869 l71 -68 -45 22 c-178 89 -327 235
-410 400 -172 342 -141 843 80 1316 l49 105 41 -30 c23 -16 46 -31 52 -33z"/>
<path d="M2496 3214 c-31 -31 -20 -44 38 -44 62 0 72 7 50 38 -18 26 -65 29
-88 6z"/>
<path d="M1941 3097 c-24 -14 -50 -52 -51 -74 0 -10 26 -13 99 -13 l100 0 -10
29 c-6 16 -18 36 -28 45 -25 23 -81 29 -110 13z"/>
<path d="M2899 3051 c-16 -16 -29 -39 -29 -50 0 -20 6 -21 93 -21 52 0 96 3
100 6 10 10 -14 64 -36 79 -37 26 -94 19 -128 -14z"/>
<path d="M3532 2918 c-7 -7 -12 -20 -12 -30 0 -15 9 -18 55 -18 41 0 55 4 55
14 0 38 -70 62 -98 34z"/>
<path d="M2489 2887 c-15 -11 -39 -49 -39 -61 0 -3 38 -6 85 -6 95 0 106 10
60 55 -27 27 -79 33 -106 12z"/>
<path d="M1588 2869 c-10 -5 -22 -19 -28 -29 -10 -19 -7 -20 50 -20 66 0 79
15 38 44 -26 18 -36 19 -60 5z"/>
<path d="M2047 2642 c-30 -33 -21 -42 43 -42 64 0 72 8 40 40 -25 25 -62 26
-83 2z"/>
<path d="M2837 2642 c-30 -33 -21 -42 43 -42 52 0 59 2 53 18 -15 42 -68 56
-96 24z"/>
</g>
</svg>
