<?xml version="1.0" standalone="no"?>
<!DOCTYPE svg PUBLIC "-//W3C//DTD SVG 20010904//EN"
 "http://www.w3.org/TR/2001/REC-SVG-20010904/DTD/svg10.dtd">
<svg version="1.0" xmlns="http://www.w3.org/2000/svg"
 width="512.000000pt" height="512.000000pt" viewBox="0 0 512.000000 512.000000"
 preserveAspectRatio="xMidYMid meet">

<g transform="translate(0.000000,512.000000) scale(0.100000,-0.100000)"
fill="#000000" stroke="none">
<path d="M2375 5114 c-410 -43 -750 -161 -1067 -370 -54 -36 -117 -83 -140
-104 -37 -36 -40 -43 -35 -77 6 -37 3 -40 -63 -101 -38 -35 -71 -58 -75 -52
-3 5 -21 10 -39 10 -28 0 -43 -10 -92 -63 -211 -225 -397 -561 -489 -881 -68
-239 -89 -413 -82 -693 5 -263 31 -413 107 -646 101 -304 256 -573 469 -811
l70 -79 -29 -40 c-20 -28 -61 -136 -132 -347 l-102 -307 -47 -16 c-104 -37
-174 -143 -173 -262 1 -108 52 -193 148 -243 l51 -27 1905 0 1905 0 55 30
c167 92 196 311 60 444 -23 23 -64 49 -89 58 l-47 16 -102 307 c-71 213 -112
319 -132 347 l-30 41 69 76 c311 342 518 801 571 1261 24 218 7 543 -40 754
-206 917 -951 1612 -1880 1756 -101 15 -442 28 -525 19z m-641 -883 c25 -85
53 -162 61 -171 9 -9 87 -39 175 -65 88 -27 158 -50 156 -52 -2 -3 -71 -24
-152 -49 -81 -24 -157 -50 -169 -58 -16 -11 -34 -55 -70 -175 -27 -89 -52
-158 -56 -154 -4 5 -26 73 -49 153 -23 80 -51 154 -61 166 -12 13 -77 38 -181
69 l-162 49 90 27 c49 15 121 37 161 49 39 12 78 27 88 33 9 7 36 78 61 162
54 181 54 179 58 174 2 -2 25 -73 50 -158z m1174 -412 c56 -28 98 -85 113
-157 16 -76 23 -88 58 -100 26 -9 40 -5 108 29 114 57 185 72 312 67 75 -3
123 -11 166 -26 74 -27 93 -27 122 -1 l22 22 38 -28 c21 -15 55 -44 75 -63 34
-32 36 -37 22 -56 -20 -30 -17 -56 12 -99 14 -21 37 -63 50 -92 13 -30 35 -61
48 -70 30 -20 76 -13 100 14 10 11 45 31 79 47 125 56 279 30 376 -65 41 -40
49 -54 55 -96 15 -111 18 -393 7 -510 -48 -468 -250 -911 -569 -1246 l-84 -89
-1458 0 -1458 0 -73 78 c-337 359 -526 770 -579 1254 -12 116 -12 324 0 428 8
70 11 77 47 107 57 49 144 90 221 103 83 15 173 3 259 -35 103 -46 133 -29
163 87 34 135 108 263 208 362 45 43 53 47 77 39 26 -8 32 -23 86 -198 64
-208 82 -237 153 -250 40 -8 100 16 122 50 8 12 39 104 69 205 30 101 56 184
57 185 2 1 77 25 168 52 l165 50 48 -25 c26 -14 81 -56 123 -94 100 -92 146
-92 185 0 11 26 32 60 47 76 62 66 175 85 260 45z m1171 -2694 c12 -12 58
-132 111 -288 49 -147 90 -270 90 -272 0 -3 -573 -5 -1274 -5 -1273 0 -1273 0
-1300 -21 -46 -36 -32 -108 25 -128 23 -8 419 -11 1370 -11 l1337 0 31 -26
c59 -49 59 -133 0 -190 l-30 -29 -1852 -3 c-1285 -2 -1863 0 -1889 8 -56 16
-88 61 -88 122 0 44 4 54 34 84 l34 34 363 0 c390 0 400 1 428 51 19 33 1 81
-35 98 -17 7 -119 11 -309 11 -157 0 -285 1 -285 3 0 15 182 543 192 554 7 8
21 19 33 24 11 4 689 7 1507 6 1473 -2 1488 -2 1507 -22z"/>
<path d="M3628 3464 c-38 -20 -48 -43 -108 -244 -29 -96 -53 -176 -54 -177 -2
-2 -86 -28 -187 -59 -101 -30 -193 -61 -205 -69 -33 -21 -57 -81 -49 -121 13
-72 42 -90 250 -152 l190 -58 57 -188 c62 -205 82 -240 145 -252 45 -8 78 1
113 34 24 22 39 58 85 212 31 102 59 188 63 191 4 4 88 31 186 60 99 30 191
63 204 73 58 46 63 133 12 185 -25 25 -161 73 -376 133 -30 8 -32 12 -84 186
-57 191 -76 232 -115 250 -35 16 -94 14 -127 -4z m117 -364 c26 -85 55 -163
64 -172 9 -10 87 -39 174 -65 86 -26 154 -50 150 -53 -5 -4 -75 -27 -156 -51
-82 -24 -157 -52 -167 -61 -9 -9 -27 -50 -40 -90 -12 -40 -34 -113 -49 -162
l-27 -90 -48 162 c-32 106 -56 168 -70 180 -12 11 -86 39 -166 62 -80 24 -148
46 -153 50 -4 3 64 27 150 53 104 31 164 54 174 67 10 11 27 52 39 92 48 163
73 239 75 236 2 -2 24 -73 50 -158z"/>
<path d="M2135 2726 c-45 -20 -58 -46 -110 -222 -26 -87 -52 -164 -59 -170 -6
-7 -83 -33 -171 -59 -88 -26 -172 -56 -187 -67 -31 -22 -54 -84 -44 -122 15
-61 51 -82 231 -136 93 -28 172 -54 176 -58 3 -4 28 -81 54 -172 41 -137 54
-170 81 -197 26 -27 40 -33 73 -33 53 0 88 17 110 54 10 17 40 104 66 192 l48
161 161 48 c89 26 175 56 192 66 37 23 54 57 54 110 0 33 -6 47 -32 73 -27 26
-61 40 -193 80 -88 26 -165 49 -171 51 -6 1 -34 81 -63 176 -29 96 -60 182
-69 193 -40 44 -93 56 -147 32z m100 -369 c28 -92 45 -133 61 -146 13 -10 82
-35 153 -57 72 -21 125 -41 118 -45 -6 -4 -68 -24 -137 -44 -69 -20 -132 -44
-142 -53 -9 -10 -33 -73 -53 -142 -20 -69 -40 -131 -44 -138 -4 -6 -25 47 -46
120 -22 73 -49 142 -60 154 -19 21 -61 37 -225 85 l-75 21 145 44 c87 26 151
51 160 62 8 10 33 79 55 155 22 75 43 131 46 124 4 -7 23 -70 44 -140z"/>
</g>
</svg>
