<?xml version="1.0" standalone="no"?>
<!DOCTYPE svg PUBLIC "-//W3C//DTD SVG 20010904//EN"
 "http://www.w3.org/TR/2001/REC-SVG-20010904/DTD/svg10.dtd">
<svg version="1.0" xmlns="http://www.w3.org/2000/svg"
 width="512.000000pt" height="512.000000pt" viewBox="0 0 512.000000 512.000000"
 preserveAspectRatio="xMidYMid meet">

<g transform="translate(0.000000,512.000000) scale(0.100000,-0.100000)"
fill="#000000" stroke="none">
<path d="M1623 4687 l-433 -432 0 -753 0 -753 25 -24 c30 -30 64 -32 99 -4
l26 20 0 490 c0 269 3 489 8 489 4 0 68 -35 142 -78 l135 -78 5 -243 c5 -225
6 -244 24 -257 30 -22 79 -17 104 9 21 22 22 33 24 257 l3 234 140 82 c77 45
147 83 155 83 8 0 128 -64 265 -143 l250 -143 3 -654 2 -654 -312 313 c-316
315 -338 333 -368 297 -11 -14 -25 -4 -100 70 -69 67 -94 85 -116 85 -24 0
-87 -59 -421 -393 l-393 -392 0 -387 c0 -268 4 -395 11 -412 23 -49 104 -53
128 -7 7 12 11 91 11 196 0 103 4 175 9 173 5 -1 84 -46 175 -98 l165 -95 1
-483 0 -483 -53 30 c-29 16 -106 61 -172 99 l-120 70 -5 187 c-5 170 -7 188
-24 201 -33 23 -82 18 -105 -12 -20 -25 -21 -39 -21 -234 0 -183 2 -210 17
-229 24 -28 1071 -631 1097 -631 21 0 447 240 483 273 22 20 23 25 25 280 l3
260 112 64 113 65 262 -151 c145 -83 271 -151 282 -151 23 0 675 375 699 402
15 18 17 50 17 354 l0 334 150 300 150 300 0 632 0 632 -362 364 c-356 356
-364 363 -400 360 -33 -3 -69 -36 -423 -383 -212 -209 -389 -381 -393 -382 -4
-1 -131 69 -282 155 l-275 158 -3 499 -2 500 414 -414 c375 -375 417 -414 447
-414 40 0 69 32 69 76 0 28 -52 84 -488 519 -425 425 -491 488 -517 488 -26 0
-86 -56 -462 -433z m371 -824 c-32 -24 -282 -163 -292 -163 -6 0 -89 46 -186
101 l-176 101 0 147 0 146 333 333 332 332 3 -492 c2 -450 1 -494 -14 -505z
m1659 169 l107 -108 -2 -362 -3 -363 -225 -131 c-124 -71 -231 -132 -238 -135
-11 -5 -382 199 -454 249 -28 19 -28 21 -28 126 l0 107 362 362 c200 200 365
363 368 363 3 0 54 -49 113 -108z m497 -730 c0 -209 -1 -224 -17 -218 -10 4
-62 32 -115 62 l-98 55 1 282 0 282 115 -120 114 -119 0 -224z m-164 -313 c76
-45 145 -86 152 -91 9 -8 12 -74 12 -269 l0 -259 -150 -300 -150 -300 0 -319
0 -319 -222 -128 c-123 -70 -233 -134 -245 -142 l-23 -14 0 974 0 974 237 137
c131 75 240 137 243 137 4 0 69 -37 146 -81z m-966 -87 l185 -107 0 -962 c0
-529 -3 -964 -7 -968 -4 -4 -90 41 -192 100 l-186 107 -1 186 c-1 103 -4 198
-8 212 -4 15 -21 32 -44 43 l-37 19 0 66 c0 66 1 67 33 82 17 8 37 26 44 40
10 19 13 175 13 658 0 347 3 632 8 632 4 -1 90 -49 192 -108z m-1011 -496
c303 -303 304 -304 280 -319 -13 -9 -203 -119 -423 -245 l-398 -230 -122 70
c-66 39 -163 95 -213 125 l-93 54 0 97 0 97 327 327 c181 181 330 328 333 328
3 0 142 -137 309 -304z m335 -2043 c-50 -36 -336 -194 -347 -191 -8 2 -111 59
-230 128 l-215 124 -7 91 c-3 49 -5 287 -3 529 l3 439 405 233 405 233 3 -787
c2 -723 1 -788 -14 -799z"/>
<path d="M4190 5107 c-41 -21 -65 -69 -89 -178 -13 -57 -30 -134 -38 -171
l-14 -67 -127 -40 c-146 -46 -186 -75 -186 -136 0 -62 50 -96 205 -140 52 -15
98 -31 102 -35 5 -4 22 -70 37 -145 48 -227 71 -275 137 -275 75 0 99 39 138
220 15 69 32 143 38 164 l12 40 105 31 c165 49 200 75 200 146 0 31 -6 43 -36
67 -31 26 -135 64 -237 88 -36 8 -41 19 -77 192 -30 146 -48 199 -78 225 -25
23 -64 29 -92 14z m100 -522 c13 -14 54 -35 92 -47 l69 -22 -66 -21 c-90 -30
-113 -55 -140 -157 l-22 -83 -17 78 c-23 102 -49 132 -139 161 l-68 22 69 22
c38 12 78 32 89 45 20 21 44 87 59 157 7 33 8 31 29 -48 13 -49 31 -92 45
-107z"/>
<path d="M4566 3919 c-55 -43 -21 -139 50 -139 70 0 102 92 49 138 -33 28 -65
28 -99 1z"/>
<path d="M771 3879 c-115 -22 -194 -136 -177 -254 10 -63 56 -127 117 -159 44
-25 59 -28 119 -24 90 5 143 39 183 117 86 170 -54 355 -242 320z m99 -169
c44 -44 8 -120 -56 -120 -35 0 -74 37 -74 70 0 10 9 29 21 44 26 33 79 36 109
6z"/>
<path d="M630 3177 c-37 -19 -50 -54 -50 -139 l0 -78 -63 0 c-77 0 -107 -21
-107 -75 0 -50 37 -75 110 -75 l58 0 4 -89 c4 -104 19 -131 75 -131 58 0 73
26 73 130 l0 90 65 0 c57 0 69 3 90 25 32 31 33 74 2 103 -19 18 -35 22 -90
22 l-67 0 0 93 c0 77 -3 97 -17 109 -27 24 -55 29 -83 15z"/>
<path d="M786 2449 c-35 -28 -36 -80 -1 -114 71 -72 174 37 105 110 -29 31
-68 32 -104 4z"/>
<path d="M3985 861 c-148 -67 -181 -250 -66 -362 54 -52 118 -75 182 -65 181
29 258 230 141 367 -65 75 -170 100 -257 60z m142 -157 c20 -20 24 -31 19 -57
-8 -40 -23 -55 -63 -63 -26 -5 -37 -1 -57 19 -33 33 -33 71 -1 102 31 32 69
32 102 -1z"/>
<path d="M3681 434 c-27 -35 -26 -66 2 -100 17 -20 33 -27 57 -27 24 0 40 7
57 27 28 34 29 65 2 100 -16 20 -29 26 -59 26 -30 0 -43 -6 -59 -26z"/>
</g>
</svg>
