<?xml version="1.0" standalone="no"?>
<!DOCTYPE svg PUBLIC "-//W3C//DTD SVG 20010904//EN"
 "http://www.w3.org/TR/2001/REC-SVG-20010904/DTD/svg10.dtd">
<svg version="1.0" xmlns="http://www.w3.org/2000/svg"
 width="512.000000pt" height="512.000000pt" viewBox="0 0 512.000000 512.000000"
 preserveAspectRatio="xMidYMid meet">

<g transform="translate(0.000000,512.000000) scale(0.100000,-0.100000)"
fill="#000000" stroke="none">
<path d="M1726 5094 c-9 -8 -16 -31 -16 -50 0 -29 -3 -34 -24 -34 -69 0 -104
-46 -72 -95 13 -20 25 -25 56 -25 40 0 40 0 40 -38 0 -45 24 -72 63 -72 32 0
57 33 57 77 0 32 2 33 39 33 40 0 71 25 71 58 0 24 -48 62 -80 62 -27 0 -30 3
-30 33 0 58 -66 90 -104 51z"/>
<path d="M2412 5020 c-263 -69 -444 -287 -460 -553 -3 -50 0 -118 7 -156 11
-61 10 -72 -8 -120 -63 -158 22 -322 189 -364 48 -13 55 -18 61 -44 l6 -31
-87 -4 c-97 -5 -128 -18 -160 -71 -17 -27 -20 -51 -20 -165 0 -152 11 -191 62
-222 24 -14 50 -20 96 -20 l62 0 0 -265 c0 -245 -2 -268 -21 -322 -20 -54 -49
-86 -404 -443 -210 -212 -396 -406 -414 -433 -46 -67 -98 -181 -118 -257 -22
-85 -22 -263 -1 -345 57 -213 84 -248 535 -696 369 -367 380 -377 469 -422
229 -117 479 -117 708 0 89 45 100 55 464 417 445 442 472 476 528 663 33 110
37 279 10 383 -19 76 -71 189 -117 257 -18 27 -204 221 -414 433 -355 357
-384 389 -404 443 -19 54 -21 77 -21 322 l0 265 63 0 c45 0 71 6 95 20 51 31
62 70 62 222 0 114 -3 138 -20 165 -32 53 -63 66 -160 71 l-87 4 6 31 c6 26
13 31 61 44 100 25 168 88 196 179 19 65 18 114 -7 185 -19 55 -20 66 -9 126
49 258 -80 527 -312 648 -137 72 -294 92 -436 55z m250 -91 c140 -29 280 -132
346 -256 60 -113 75 -220 50 -364 -11 -65 -11 -75 10 -132 12 -34 22 -78 22
-97 -1 -76 -82 -159 -155 -160 -50 0 -93 -33 -105 -82 -20 -81 -26 -88 -70
-88 l-40 0 0 53 c0 60 -12 77 -52 77 -34 0 -48 -24 -48 -84 l0 -46 -60 0 -60
0 0 46 c0 60 -14 84 -48 84 -40 0 -52 -17 -52 -77 l0 -53 -40 0 c-44 0 -50 7
-70 88 -12 49 -55 82 -105 82 -45 0 -107 40 -132 85 -28 50 -29 99 -2 167 15
38 19 65 15 98 -25 199 -17 275 41 392 100 200 335 313 555 267z m406 -1292
c13 -9 18 -220 6 -251 -5 -14 -60 -16 -514 -16 -454 0 -509 2 -514 16 -3 9 -6
67 -6 129 0 89 3 116 14 122 19 10 997 10 1014 0z m-764 -394 c4 -16 24 -129
46 -253 38 -216 41 -226 70 -252 29 -27 34 -28 140 -28 106 0 111 1 140 28 29
26 32 36 70 252 51 287 49 280 66 280 12 0 14 -37 14 -222 0 -255 9 -336 47
-422 24 -55 67 -102 408 -446 210 -212 396 -407 414 -433 32 -47 81 -148 81
-167 0 -27 -227 -115 -370 -144 -293 -60 -589 -4 -840 158 -344 223 -695 274
-1068 155 -53 -17 -109 -38 -124 -45 -84 -43 23 79 417 476 341 344 384 391
408 446 38 86 47 167 47 422 0 185 2 222 14 222 8 0 17 -12 20 -27z m-156
-1563 c119 -29 236 -80 370 -162 132 -80 206 -115 319 -152 274 -90 598 -70
885 54 51 22 96 40 101 40 12 0 7 -152 -8 -225 -20 -98 -82 -217 -158 -305
-35 -41 -205 -214 -378 -385 -340 -335 -375 -363 -524 -412 -67 -22 -98 -26
-195 -26 -97 0 -128 4 -195 26 -150 49 -183 75 -538 427 -354 350 -417 420
-466 519 -64 125 -87 294 -60 420 11 51 11 51 86 87 98 46 229 89 323 104 41
6 82 13 90 15 42 11 272 -6 348 -25z"/>
<path d="M2239 4497 c-131 -88 -88 -307 65 -324 56 -7 106 16 142 63 26 33 29
45 29 110 0 81 -15 111 -75 152 -45 30 -115 30 -161 -1z m120 -103 c28 -35 26
-69 -4 -99 -29 -30 -36 -31 -66 -6 -17 13 -23 29 -23 56 0 27 6 43 23 56 31
25 46 24 70 -7z"/>
<path d="M2720 4498 c-60 -41 -75 -71 -75 -152 0 -65 3 -77 29 -110 96 -127
285 -54 286 109 0 54 -37 124 -79 152 -46 31 -116 31 -161 1z m111 -97 c17
-13 23 -29 23 -56 0 -27 -6 -43 -23 -56 -30 -25 -37 -24 -66 6 -30 30 -32 64
-4 99 24 31 39 32 70 7z"/>
<path d="M2520 4188 c-27 -14 -89 -120 -90 -153 0 -29 19 -45 52 -45 24 0 32
8 50 45 12 25 25 45 28 45 4 0 15 -18 25 -40 27 -60 95 -68 103 -12 3 22 -48
131 -71 150 -22 19 -70 24 -97 10z"/>
<path d="M2683 2200 c-85 -51 -81 -179 6 -225 116 -60 239 71 171 182 -37 61
-116 81 -177 43z m87 -96 c11 -12 10 -18 -3 -32 -16 -15 -18 -15 -34 0 -13 14
-14 20 -3 32 7 9 16 16 20 16 4 0 13 -7 20 -16z"/>
<path d="M2925 1901 c-48 -22 -69 -44 -90 -94 -21 -51 -19 -105 8 -152 72
-127 249 -124 315 5 77 153 -77 313 -233 241z m109 -92 c58 -27 55 -115 -5
-139 -63 -26 -125 36 -100 99 19 44 60 60 105 40z"/>
<path d="M2160 1359 c-210 -95 -212 -377 -5 -475 166 -79 364 50 365 236 0
140 -120 260 -260 260 -34 0 -72 -8 -100 -21z m170 -101 c48 -25 90 -89 90
-138 0 -14 -10 -46 -22 -70 -25 -48 -89 -90 -138 -90 -14 0 -46 10 -70 23 -48
24 -90 88 -90 137 0 14 10 46 23 70 24 48 88 90 137 90 14 0 46 -10 70 -22z"/>
<path d="M2699 1017 c-52 -35 -79 -82 -79 -137 0 -122 143 -203 241 -137 52
35 79 82 79 137 0 122 -143 203 -241 137z m121 -97 c11 -11 20 -29 20 -40 0
-11 -9 -29 -20 -40 -11 -11 -29 -20 -40 -20 -11 0 -29 9 -40 20 -11 11 -20 29
-20 40 0 11 9 29 20 40 11 11 29 20 40 20 11 0 29 -9 40 -20z"/>
</g>
</svg>
