<?xml version="1.0" standalone="no"?>
<!DOCTYPE svg PUBLIC "-//W3C//DTD SVG 20010904//EN"
 "http://www.w3.org/TR/2001/REC-SVG-20010904/DTD/svg10.dtd">
<svg version="1.0" xmlns="http://www.w3.org/2000/svg"
 width="512.000000pt" height="512.000000pt" viewBox="0 0 512.000000 512.000000"
 preserveAspectRatio="xMidYMid meet">

<g transform="translate(0.000000,512.000000) scale(0.100000,-0.100000)"
fill="#000000" stroke="none">
<path d="M3655 5095 c-176 -38 -363 -162 -481 -318 -63 -83 -129 -223 -155
-326 -31 -121 -24 -294 16 -401 55 -151 121 -231 256 -312 144 -85 318 -131
660 -173 418 -52 519 -89 577 -213 24 -51 27 -68 26 -162 -1 -126 -30 -254
-106 -459 -76 -205 -75 -296 2 -336 65 -34 126 -11 219 82 152 154 293 395
341 587 139 552 -31 875 -534 1011 -50 13 -191 43 -312 65 -311 56 -421 93
-478 160 -34 41 -40 67 -33 148 8 110 56 229 178 438 69 118 74 151 30 195
-26 26 -36 29 -88 28 -32 0 -85 -6 -118 -14z m-109 -317 c-74 -159 -90 -222
-91 -353 0 -109 2 -125 26 -175 36 -78 105 -142 202 -190 99 -48 176 -68 457
-120 118 -21 256 -51 305 -65 368 -105 474 -311 379 -733 -16 -71 -40 -138
-70 -200 -26 -51 -48 -92 -49 -90 -2 2 5 35 15 75 74 289 37 511 -106 642
-112 103 -243 143 -615 191 -266 34 -350 49 -449 82 -259 84 -359 217 -348
462 4 76 12 118 31 169 53 137 157 266 281 347 33 22 61 38 63 36 2 -1 -12
-36 -31 -78z"/>
<path d="M3375 2969 c-27 -4 -68 -14 -90 -22 -77 -28 -401 -169 -527 -229
l-127 -60 -28 19 c-61 43 -161 56 -233 29 -19 -6 -99 -53 -177 -103 -140 -88
-143 -90 -181 -80 -88 23 -179 -33 -202 -125 -12 -45 -15 -48 -147 -133 -135
-85 -136 -86 -157 -67 -60 55 -136 66 -200 29 -65 -37 -81 -67 -84 -162 l-4
-83 -256 -163 c-142 -89 -267 -169 -279 -177 -19 -12 -25 -11 -50 7 -45 33
-110 37 -162 9 -64 -33 -84 -66 -89 -142 l-4 -64 -87 -47 c-120 -63 -154 -94
-193 -173 -29 -58 -33 -76 -32 -142 l0 -75 195 -429 c166 -368 201 -436 241
-481 100 -110 224 -129 405 -61 l101 39 44 -22 c25 -11 59 -21 77 -21 67 0
145 60 158 120 4 23 15 32 57 48 l51 20 18 -28 c53 -83 170 -98 248 -33 39 33
59 79 59 135 l0 43 243 89 c133 49 270 100 304 112 l61 23 20 -37 c25 -49 83
-82 145 -82 51 0 78 10 114 42 20 19 24 19 70 5 109 -34 188 -28 250 19 36 27
73 91 73 124 0 11 2 20 4 20 2 0 37 -16 77 -35 117 -55 254 -64 337 -21 29 15
86 73 94 96 3 9 22 9 83 0 225 -35 374 100 310 280 -18 50 -13 60 24 60 75 0
209 59 278 123 102 93 118 202 44 297 -26 33 -28 39 -23 121 5 98 -13 218 -58
394 -87 339 -271 675 -487 892 -78 79 -194 117 -308 102z m123 -213 c79 -42
236 -253 335 -452 98 -194 180 -471 194 -654 l6 -80 -91 0 c-50 0 -98 -3 -107
-7 -14 -5 -16 -2 -10 16 11 35 9 125 -4 164 -14 41 -78 103 -116 113 -21 5
-36 27 -74 103 -95 189 -202 487 -246 684 -16 72 -16 79 -1 102 19 29 70 34
114 11z m-322 -103 c3 -16 17 -70 30 -122 13 -52 23 -95 21 -97 -1 -2 -85 -37
-186 -79 -181 -75 -200 -79 -201 -42 0 4 -20 43 -45 86 -25 43 -45 82 -45 87
0 5 17 16 38 26 20 9 111 50 202 92 91 41 168 75 172 76 4 0 10 -12 14 -27z
m-638 -80 c14 -10 62 -84 108 -163 135 -234 130 -245 -165 -415 -101 -58 -186
-104 -188 -101 -3 2 -40 121 -83 263 -59 195 -75 261 -67 269 17 16 239 151
268 164 33 14 97 5 127 -17z m-536 -176 c7 -8 132 -413 278 -901 204 -685 262
-891 253 -904 -5 -9 -24 -18 -41 -20 -25 -3 -34 2 -42 20 -5 13 -127 418 -271
901 -250 843 -260 879 -243 898 20 22 47 25 66 6z m1286 -146 l20 -58 -391
-161 c-215 -89 -392 -160 -393 -159 -2 1 45 29 103 62 128 73 174 111 202 167
21 43 22 44 218 125 109 45 203 82 210 82 6 1 20 -25 31 -58z m-1390 -238 c75
-254 87 -301 81 -306 -15 -14 -361 -209 -364 -206 -5 6 -57 538 -53 549 4 11
249 169 264 170 6 0 38 -93 72 -207z m-479 103 c7 -9 45 -367 98 -927 l85
-913 -22 -18 c-27 -22 -31 -22 -55 -4 -16 12 -27 104 -101 892 -46 483 -83
897 -84 920 0 22 5 45 12 52 16 16 53 15 67 -2z m1941 -46 c0 -5 24 -61 54
-123 l53 -114 -35 -19 c-20 -10 -49 -30 -65 -43 -20 -17 -33 -22 -42 -15 -50
37 -70 47 -107 55 -96 22 -222 -35 -328 -148 l-68 -73 -7 37 c-10 56 -40 107
-84 145 l-41 35 328 136 c180 74 330 136 335 136 4 1 7 -3 7 -9z m-2085 -666
l7 -101 -176 -101 c-96 -56 -179 -102 -184 -102 -5 0 -16 17 -25 38 -8 20 -50
113 -92 205 -42 93 -75 173 -73 178 2 6 116 82 253 169 l250 159 17 -172 c9
-95 19 -217 23 -273z m2410 321 c56 -56 19 -180 -86 -290 l-60 -63 -54 28
c-29 15 -71 31 -92 35 l-40 6 14 52 c7 28 13 70 13 94 0 40 3 45 56 84 100 76
205 99 249 54z m-1032 -45 c33 -26 51 -80 49 -156 -1 -89 -17 -141 -50 -158
-43 -23 -99 -87 -125 -143 l-24 -53 -48 161 -47 160 26 52 c38 78 127 157 177
157 9 0 28 -9 42 -20z m584 -17 c40 -62 2 -239 -57 -263 -34 -14 -105 -87
-115 -119 -6 -21 -9 -19 -46 23 -22 25 -64 57 -94 71 l-54 27 15 36 c58 140
186 252 286 252 41 0 50 -4 65 -27z m-2669 -112 c7 -4 148 -308 313 -676 288
-642 299 -668 284 -691 -17 -27 -46 -31 -67 -10 -22 22 -598 1313 -598 1340 0
35 38 56 68 37z m1521 -170 c23 -79 40 -145 38 -147 -6 -6 -478 -66 -482 -62
-3 2 -9 44 -14 93 -9 78 -9 91 5 100 36 22 399 172 405 166 3 -3 24 -71 48
-150z m1978 54 c69 -21 103 -54 103 -101 0 -76 -113 -150 -266 -174 -81 -13
-116 -7 -172 32 -23 16 -63 38 -88 50 l-46 20 82 79 c44 43 84 79 88 79 4 1
30 7 57 15 67 18 180 18 242 0z m-637 -144 c43 -31 56 -63 40 -100 -22 -55
-73 -85 -150 -89 -102 -6 -150 26 -150 99 0 40 52 92 107 107 50 14 122 6 153
-17z m-527 -44 c99 -75 87 -236 -22 -294 -56 -29 -104 -29 -161 0 -103 51
-128 179 -53 268 38 44 78 60 145 56 42 -2 65 -10 91 -30z m-2383 -104 c29
-65 63 -141 76 -170 l23 -52 -107 -62 c-59 -34 -110 -63 -113 -65 -4 -2 -34
57 -68 131 -66 144 -75 195 -43 234 18 23 148 100 168 101 6 0 35 -53 64 -117z
m780 3 c0 -21 -6 -24 -42 -28 -24 -3 -44 -4 -46 -3 -2 2 78 54 86 55 1 0 2
-11 2 -24z m2360 -58 c130 -86 178 -218 94 -257 -32 -14 -132 -14 -190 0 -39
10 -46 17 -64 57 -11 25 -32 60 -45 78 l-24 32 27 11 c31 13 85 61 108 97 9
13 20 24 24 24 4 0 36 -19 70 -42z m-1475 -38 c10 -33 16 -62 14 -63 -6 -5
-530 -69 -533 -66 -2 2 -6 31 -9 65 l-5 61 232 30 c312 41 279 44 301 -27z
m956 -29 c22 -17 65 -35 95 -42 62 -14 112 -60 145 -133 24 -53 24 -88 0 -117
-17 -22 -27 -24 -103 -24 -72 0 -91 4 -150 32 -37 17 -87 50 -112 73 l-46 42
45 50 c25 28 53 72 62 99 10 27 19 49 20 49 2 0 21 -13 44 -29z m-1821 -63 c0
-24 3 -52 6 -64 5 -19 -1 -21 -133 -37 -76 -10 -144 -17 -151 -17 -12 0 -67
108 -59 116 5 6 263 41 305 43 31 1 32 0 32 -41z m1379 -133 c24 -8 67 -15 96
-15 52 0 53 0 69 -40 23 -57 21 -125 -4 -150 -25 -25 -87 -27 -151 -5 l-44 15
-34 118 c-19 64 -37 123 -39 131 -3 9 10 3 29 -12 20 -15 55 -33 78 -42z
m-435 -36 c6 -29 28 -20 -456 -197 l-106 -39 -6 31 c-3 17 -8 72 -12 121 l-7
90 279 36 279 35 11 -25 c6 -14 14 -38 18 -52z m-1587 5 c-3 -3 -12 -4 -19 -1
-8 3 -5 6 6 6 11 1 17 -2 13 -5z m663 -56 c0 -7 7 -78 15 -157 8 -80 13 -146
12 -148 -2 -1 -33 -14 -69 -27 l-67 -25 -7 21 c-3 12 -37 88 -74 170 l-68 147
42 6 c202 29 216 29 216 13z m-517 -265 c48 -109 87 -201 87 -205 0 -3 -37
-20 -82 -38 -93 -35 -131 -34 -172 3 -21 19 -201 395 -193 403 4 4 205 31 242
33 30 1 31 -1 118 -196z"/>
</g>
</svg>
