<?xml version="1.0" standalone="no"?>
<!DOCTYPE svg PUBLIC "-//W3C//DTD SVG 20010904//EN"
 "http://www.w3.org/TR/2001/REC-SVG-20010904/DTD/svg10.dtd">
<svg version="1.0" xmlns="http://www.w3.org/2000/svg"
 width="512.000000pt" height="512.000000pt" viewBox="0 0 512.000000 512.000000"
 preserveAspectRatio="xMidYMid meet">

<g transform="translate(0.000000,512.000000) scale(0.100000,-0.100000)"
fill="#000000" stroke="none">
<path d="M11 5079 c33 -146 112 -285 316 -556 226 -301 272 -388 293 -554 13
-110 -1 -232 -51 -428 -66 -258 -63 -363 16 -526 56 -115 46 -110 150 -75 113
39 293 85 408 105 446 77 888 13 1284 -186 l135 -67 -6 66 c-33 328 -147 585
-325 726 -99 78 -153 109 -316 181 -216 95 -271 132 -328 218 -66 99 -88 198
-108 477 -12 182 -31 285 -66 358 -46 98 -189 229 -306 282 -40 18 -72 20
-573 20 l-532 0 9 -41z m1133 -1435 c11 -10 16 -34 16 -75 l0 -59 65 0 c53 0
66 -3 75 -19 23 -43 -12 -71 -89 -71 l-51 0 0 -58 c0 -60 -11 -82 -41 -82 -33
0 -49 29 -49 86 l0 54 -51 0 c-61 0 -89 13 -89 43 0 36 19 47 82 47 l58 0 0
57 c0 79 35 116 74 77z"/>
<path d="M1707 5113 c-13 -12 -7 -271 7 -345 32 -165 90 -256 248 -387 108
-91 154 -142 192 -218 30 -61 63 -176 74 -259 l7 -59 38 57 c54 80 160 177
244 221 39 20 149 67 243 102 95 36 195 77 222 92 67 37 140 107 169 163 29
56 31 159 4 240 -27 83 -100 217 -171 314 l-64 86 -603 0 c-332 0 -607 -3
-610 -7z m891 -689 c15 -11 22 -25 22 -50 0 -66 -69 -97 -117 -52 -66 61 20
155 95 102z"/>
<path d="M3948 5052 c76 -89 111 -141 154 -227 64 -129 79 -186 79 -303 -1
-114 -23 -198 -111 -406 -97 -232 -114 -291 -108 -379 6 -83 32 -147 87 -209
l37 -41 23 86 c30 113 90 236 139 285 22 22 73 59 113 82 274 156 389 281 434
471 37 158 0 368 -107 617 l-40 92 -380 0 -379 0 59 -68z m585 -714 c18 -24
19 -30 7 -58 -24 -57 -98 -63 -125 -9 -19 36 -19 41 6 73 29 36 83 33 112 -6z"/>
<path d="M1279 2765 c-106 -15 -240 -48 -307 -77 -38 -16 -43 -21 -40 -45 3
-25 7 -28 38 -27 19 0 75 13 124 27 338 102 742 63 1074 -105 114 -57 136 -61
147 -28 10 33 -7 48 -118 104 -284 141 -603 194 -918 151z"/>
<path d="M3428 2769 c-104 -13 -285 -59 -383 -98 -89 -36 -226 -108 -237 -125
-14 -20 -8 -45 11 -56 16 -8 40 1 126 45 217 111 419 158 680 159 182 0 275
-12 431 -59 98 -30 120 -31 134 -6 23 44 -47 77 -259 121 -112 24 -381 34
-503 19z"/>
<path d="M1160 2304 c-14 -2 -59 -9 -100 -15 -81 -11 -221 -44 -257 -59 -15
-6 -23 -18 -23 -34 0 -42 24 -45 124 -20 175 44 303 57 516 51 276 -7 485 -50
726 -148 130 -53 158 -58 168 -33 13 34 -6 52 -88 88 -282 121 -563 177 -874
175 -92 -1 -178 -3 -192 -5z"/>
<path d="M3535 2303 c-237 -29 -479 -94 -662 -178 -71 -33 -80 -44 -67 -79 9
-24 44 -19 132 18 181 77 391 133 597 157 210 25 529 0 722 -56 42 -12 58 -13
69 -4 20 16 18 56 -3 67 -30 16 -182 50 -294 66 -97 15 -405 20 -494 9z"/>
<path d="M3518 1844 c-213 -24 -460 -92 -633 -173 -88 -41 -104 -63 -70 -91
19 -16 38 -11 157 39 177 75 492 151 625 151 56 0 88 32 65 66 -13 19 -36 21
-144 8z"/>
<path d="M1460 1835 c-18 -21 -3 -53 28 -59 15 -2 59 -8 97 -11 169 -15 413
-80 589 -156 98 -42 115 -46 134 -27 23 23 13 47 -29 69 -239 121 -771 242
-819 184z"/>
<path d="M965 1829 c-98 -18 -271 -61 -350 -87 -71 -24 -80 -30 -83 -54 -6
-48 20 -49 158 -8 69 21 179 48 245 60 66 12 130 23 142 26 26 5 39 39 23 59
-14 17 -58 18 -135 4z"/>
<path d="M4023 1829 c-18 -19 -16 -47 5 -57 9 -5 53 -15 97 -21 102 -16 263
-55 355 -86 84 -29 113 -22 108 23 -3 25 -12 30 -99 59 -199 65 -441 108 -466
82z"/>
<path d="M154 864 c-92 -91 -114 -129 -114 -200 0 -116 106 -224 220 -224 14
0 100 15 190 34 347 73 664 104 880 86 286 -23 417 -81 741 -327 235 -179 335
-224 489 -224 154 0 254 45 489 224 324 246 455 304 741 327 216 18 533 -13
880 -86 90 -19 176 -34 190 -34 114 0 220 108 220 224 0 71 -22 109 -113 200
-106 105 -111 103 -111 -40 l0 -91 -105 23 c-550 120 -1074 105 -1468 -42
-194 -72 -328 -155 -473 -290 -132 -123 -216 -154 -333 -120 -47 14 -72 31
-148 102 -114 106 -207 172 -330 234 -174 88 -365 145 -594 175 -161 22 -484
22 -670 0 -126 -15 -423 -67 -460 -81 -13 -5 -15 9 -16 87 -1 147 0 147 -105
43z"/>
</g>
</svg>
