<?xml version="1.0" standalone="no"?>
<!DOCTYPE svg PUBLIC "-//W3C//DTD SVG 20010904//EN"
 "http://www.w3.org/TR/2001/REC-SVG-20010904/DTD/svg10.dtd">
<svg version="1.0" xmlns="http://www.w3.org/2000/svg"
 width="512.000000pt" height="512.000000pt" viewBox="0 0 512.000000 512.000000"
 preserveAspectRatio="xMidYMid meet">

<g transform="translate(0.000000,512.000000) scale(0.100000,-0.100000)"
fill="#000000" stroke="none">
<path d="M2105 4935 c-25 -24 -25 -24 -25 -240 l0 -215 -935 0 -936 0 -24 -25
-25 -24 0 -2111 0 -2111 25 -24 24 -25 1391 0 1391 0 24 25 c25 24 25 24 25
240 l0 215 935 0 936 0 24 25 25 24 0 2111 0 2111 -25 24 -24 25 -1391 0
-1391 0 -24 -25z m675 -151 c0 -27 -101 -119 -146 -132 -95 -28 -168 -8 -241
65 -85 84 -87 83 167 83 193 0 220 -2 220 -16z m640 0 c0 -27 -101 -119 -146
-132 -95 -28 -168 -8 -241 65 -85 84 -87 83 167 83 193 0 220 -2 220 -16z
m640 0 c0 -27 -101 -119 -146 -132 -95 -28 -168 -8 -241 65 -85 84 -87 83 167
83 193 0 220 -2 220 -16z m640 0 c0 -27 -101 -119 -146 -132 -95 -28 -168 -8
-241 65 -85 84 -87 83 167 83 193 0 220 -2 220 -16z m100 -379 c0 -260 1 -258
-83 -172 -62 61 -77 103 -77 208 l0 74 44 23 c24 13 58 39 77 58 18 19 34 34
36 34 2 0 3 -101 3 -225z m-2500 88 c0 -8 -12 -13 -30 -13 -29 0 -30 1 -30 48
l1 47 29 -35 c17 -19 30 -40 30 -47z m2180 -565 l0 -553 -47 70 c-189 284
-557 475 -913 475 -136 0 -314 -36 -425 -84 l-55 -25 0 310 0 310 -25 24 -24
25 744 0 745 0 0 -552z m-1600 -1608 l0 -2000 -1280 0 -1280 0 0 2000 0 2000
1280 0 1280 0 0 -2000z m1920 1440 c0 -254 1 -252 -83 -167 -54 53 -77 104
-77 167 0 63 23 114 77 168 84 84 83 86 83 -168z m-1061 -25 c179 -44 320
-124 456 -260 125 -125 215 -276 251 -420 6 -25 5 -28 -7 -19 -8 6 -53 42
-100 80 -258 206 -560 324 -828 324 -121 0 -312 -44 -454 -105 -16 -7 -17 2
-15 146 l3 153 55 28 c68 35 196 75 275 88 82 12 286 4 364 -15z m1061 -615
c0 -254 1 -252 -83 -167 -54 53 -77 104 -77 167 0 63 23 114 77 168 84 84 83
86 83 -168z m-1165 145 c172 -45 305 -179 350 -352 65 -249 -94 -511 -350
-578 -251 -65 -513 94 -580 350 -89 342 238 669 580 580z m575 -254 c58 -44
137 -109 175 -145 l70 -66 -70 -66 c-70 -65 -273 -224 -287 -224 -4 0 2 21 13
48 29 66 49 165 49 242 0 77 -20 176 -49 243 -11 26 -17 47 -13 47 4 0 55 -36
112 -79z m590 -531 c0 -254 1 -252 -83 -167 -54 53 -77 104 -77 167 0 63 23
114 77 168 84 84 83 86 83 -168z m-365 28 c-22 -67 -84 -193 -126 -255 -18
-26 -73 -88 -124 -138 -129 -127 -272 -207 -451 -252 -94 -24 -332 -23 -428 0
-79 20 -186 61 -233 89 l-33 20 0 150 c0 139 1 150 18 143 158 -64 271 -93
402 -101 283 -19 601 98 888 328 53 42 98 75 100 73 2 -2 -4 -28 -13 -57z m45
-838 l0 -550 -720 0 -720 0 0 334 0 335 55 -24 c274 -121 636 -108 920 33 163
81 337 230 420 359 22 35 41 63 43 63 1 0 2 -247 2 -550z m320 170 c0 -254 1
-252 -83 -167 -54 53 -77 104 -77 167 0 63 23 114 77 168 84 84 83 86 83 -168z
m0 -646 l0 -227 -45 42 c-25 23 -61 49 -80 58 l-35 17 0 74 c0 106 15 148 77
210 84 85 83 87 83 -174z m-1526 -246 c26 -8 60 -31 94 -65 83 -83 83 -83
-138 -83 l-190 0 0 80 0 80 96 0 c53 0 115 -5 138 -12z m640 0 c45 -13 146
-105 146 -132 0 -14 -27 -16 -220 -16 -254 0 -252 -1 -167 84 72 72 147 92
241 64z m640 0 c45 -13 146 -105 146 -132 0 -14 -27 -16 -220 -16 -254 0 -252
-1 -167 84 72 72 147 92 241 64z"/>
<path d="M505 4135 l-25 -24 0 -1791 0 -1791 25 -24 24 -25 1071 0 1071 0 24
25 25 24 0 1791 0 1791 -25 24 -24 25 -1071 0 -1071 0 -24 -25z m566 -177 c6
-24 73 -272 150 -552 76 -280 138 -511 136 -512 -1 -1 -138 228 -305 509 -166
282 -314 531 -328 555 l-25 42 180 0 180 0 12 -42z m449 -71 l0 -113 -74 -184
c-41 -102 -77 -178 -80 -170 -3 8 -35 134 -71 280 -36 146 -68 273 -71 283 -5
16 6 17 145 17 l151 0 0 -113z m450 103 c0 -17 -143 -535 -150 -543 -3 -4 -36
68 -73 160 l-67 168 0 113 0 112 145 0 c85 0 145 -4 145 -10z m506 -32 c-14
-24 -160 -269 -323 -545 -163 -277 -298 -501 -300 -499 -2 1 57 227 131 502
74 274 139 518 146 542 l11 42 180 0 180 0 -25 -42z m-1539 -673 c159 -269
303 -512 319 -540 l29 -50 -32 25 c-17 14 -162 135 -322 270 l-290 245 -1 274
c0 151 2 272 4 270 2 -2 134 -224 293 -494z m1623 223 l-1 -273 -290 -245
c-160 -135 -304 -256 -321 -269 l-30 -24 13 25 c25 46 624 1058 627 1058 1 0
2 -123 2 -272z m-917 -71 l37 -92 0 -795 0 -795 -80 0 -80 0 0 795 0 795 37
92 c20 51 39 93 43 93 4 0 23 -42 43 -93z m-630 -725 c191 -162 347 -298 347
-303 0 -5 -155 -9 -360 -9 l-360 0 0 311 c0 245 3 309 13 303 6 -5 168 -140
360 -302z m1547 -2 l0 -310 -360 0 c-207 0 -360 4 -360 9 0 8 706 611 716 611
2 0 4 -139 4 -310z m-1200 -479 c0 -8 -676 -585 -707 -605 -10 -6 -13 58 -13
303 l0 311 360 0 c205 0 360 -4 360 -9z m1200 -302 c0 -245 -3 -309 -12 -303
-32 20 -708 597 -708 605 0 5 155 9 360 9 l360 0 0 -311z m-1294 -16 c-9 -16
-53 -91 -98 -168 l-84 -140 -43 -6 c-71 -9 -104 -72 -66 -127 13 -18 14 -26 4
-44 -17 -32 -330 -562 -335 -567 -2 -2 -4 119 -4 270 l1 274 317 267 c174 148
318 268 320 268 1 0 -4 -12 -12 -27z m1003 -263 l290 -245 1 -274 c0 -151 -2
-272 -4 -270 -5 5 -318 535 -335 567 -10 18 -9 26 4 44 38 55 5 118 -66 127
l-44 6 -83 140 c-46 77 -90 153 -99 169 l-15 29 30 -24 c17 -13 161 -134 321
-269z m-365 -2 l28 -48 -26 0 c-26 0 -33 15 -63 135 -5 21 11 -2 61 -87z
m-570 13 c-15 -53 -20 -61 -42 -61 l-24 0 28 48 c59 101 63 103 38 13z m321
-86 c50 -49 15 -135 -55 -135 -19 0 -40 9 -55 25 -16 15 -25 36 -25 55 0 19 9
40 25 55 15 16 36 25 55 25 19 0 40 -9 55 -25z m-385 -142 c0 -12 -209 -785
-213 -790 -2 -2 -83 -2 -179 -1 l-175 3 235 398 235 397 48 0 c27 0 49 -3 49
-7z m994 -393 l233 -395 -175 -3 c-96 -1 -177 -1 -179 1 -2 3 -52 183 -112
401 l-108 397 54 -3 53 -3 234 -395z m-612 120 c23 -159 24 -154 -17 -173 -33
-16 -37 -16 -70 0 -19 9 -35 21 -35 27 0 18 31 240 36 254 2 8 16 12 36 10
l33 -3 17 -115z m-273 -60 c-16 -115 -19 -157 -11 -175 7 -15 39 -38 82 -60
l70 -35 0 -95 0 -95 -145 0 c-80 0 -145 3 -145 8 -1 15 164 611 167 608 3 -2
-6 -72 -18 -156z m515 -176 c42 -149 76 -274 76 -277 0 -4 -65 -7 -145 -7
l-145 0 0 95 0 95 70 35 c94 47 97 55 76 197 -16 115 -19 145 -12 137 2 -2 38
-126 80 -275z"/>
</g>
</svg>
